<?xml version="1.0" encoding="utf-8"?>
<!-- Generator: Adobe Illustrator 28.1.0, SVG Export Plug-In . SVG Version: 6.00 Build 0)  -->
<svg version="1.1" xmlns="http://www.w3.org/2000/svg" xmlns:xlink="http://www.w3.org/1999/xlink" x="0px" y="0px"
	 viewBox="0 0 841.89 595.28" style="enable-background:new 0 0 841.89 595.28;" xml:space="preserve">
<style type="text/css">
	.st0{fill:#0F3239;}
	.st1{fill:#CADEDD;}
	.st2{fill:#6CB7B3;}
</style>
<g id="Background">
	<rect x="-2585.67" class="st0" width="841.89" height="595.28"/>
	<rect x="-1723.78" class="st1" width="841.89" height="595.28"/>
	<rect x="-861.89" class="st2" width="841.89" height="595.28"/>
	<rect class="st0" width="841.89" height="595.28"/>
</g>
<g id="Graphic">
	<path class="st1" d="M173.67,277.06l0,41.96c0,0,61.83,47.07,253.56,47.07c180.04-5.35,241-68.45,241-68.45v0.01
		c0,0-60.97-63.1-241-68.45c-191.72,0-253.56,47.07-253.56,47.07l0,41.96"/>
	<g>
		<rect x="-2026.85" y="259.52" class="st1" width="12.55" height="75.7"/>
		<path class="st1" d="M-2439.66,297.22c-4.53-3.41-11.54-5.71-21.02-6.9c-3.83-0.49-7.49-0.84-10.98-1.05
			c-3.49-0.21-6.74-0.4-9.78-0.58c-3.03-0.17-5.82-0.42-8.36-0.73c-2.55-0.31-4.86-0.85-6.95-1.62c-4.39-1.53-6.59-3.97-6.59-7.32
			c0-3.14,2.02-5.63,6.06-7.48c4.04-1.85,10-2.77,17.88-2.77c5.99,0,11.8,0.7,17.41,2.09c5.61,1.4,11.24,3.56,16.89,6.48l7.63-8.47
			c-11.02-7.46-24.68-11.19-40.99-11.19c-12.34,0-21.79,2.06-28.34,6.17c-6.55,4.11-9.83,9.72-9.83,16.83c0,3.63,0.73,6.62,2.2,8.99
			c1.46,2.37,3.66,4.29,6.59,5.75c2.93,1.46,6.57,2.56,10.93,3.29c4.36,0.73,9.46,1.31,15.32,1.73c5.58,0.35,10.54,0.68,14.9,0.99
			c4.36,0.31,8.03,0.85,11.03,1.62c3,0.77,5.28,1.88,6.85,3.35c1.57,1.46,2.35,3.56,2.35,6.27c0,4.11-2.34,7.37-7.01,9.78
			c-4.67,2.41-11.54,3.61-20.6,3.61c-6.97,0-13.56-0.87-19.76-2.61c-6.21-1.74-12.37-4.5-18.51-8.26l-6.9,9.1
			c5.51,4.39,11.97,7.62,19.4,9.67c7.42,2.06,15.98,3.08,25.67,3.08c13.52,0,23.79-2.2,30.79-6.59c7.01-4.39,10.51-10.6,10.51-18.61
			C-2432.86,305.52-2435.13,300.64-2439.66,297.22z"/>
		<path class="st1" d="M-2346.18,307.86c0,5.94-2.55,10.47-7.63,13.62c-5.09,3.14-12.62,4.71-22.59,4.71
			c-10.04,0-17.62-1.57-22.74-4.71c-5.12-3.14-7.69-7.68-7.69-13.62v-48.28h-12.55v51.24c0,3.83,0.99,7.39,2.98,10.67
			c1.99,3.28,4.83,6.1,8.52,8.47c3.69,2.37,8.21,4.23,13.54,5.59c5.33,1.36,11.31,2.04,17.93,2.04c6.62,0,12.56-0.66,17.83-1.99
			c5.26-1.32,9.74-3.19,13.44-5.59c3.69-2.4,6.53-5.23,8.52-8.47c1.99-3.24,2.98-6.81,2.98-10.72v-51.24h-12.55V307.86z"/>
		<path class="st1" d="M-2241.47,303.39c2.4-1.11,4.5-2.6,6.27-4.44c1.78-1.85,3.15-4.06,4.13-6.64c0.98-2.58,1.46-5.54,1.46-8.89
			c0-7.39-2.25-13.21-6.74-17.46c-4.5-4.25-10.75-6.38-18.77-6.38h-59.71v75.7h12.55v-28.86h38.27l20.5,28.86h14.53l-20.29-29.49
			C-2246.47,305.31-2243.87,304.5-2241.47,303.39z M-2302.27,295.02v-24.05h44.13c10.46,0,15.68,4.15,15.68,12.44
			c0,3.76-1.24,6.64-3.71,8.63c-2.48,1.99-6.08,2.98-10.82,2.98H-2302.27z"/>
		<path class="st1" d="M-1911.52,270.14c-3.7-3.35-8.19-5.94-13.49-7.79c-5.3-1.85-11.26-2.77-17.88-2.77h-47.89v75.7h50.3
			c5.51,0,10.67-0.85,15.48-2.56c4.81-1.71,9.06-4.2,12.76-7.48c4.04-3.55,7.09-7.6,9.15-12.13c2.06-4.53,3.08-9.48,3.08-14.85
			c0-5.86-0.99-11.17-2.98-15.95C-1904.99,277.55-1907.83,273.48-1911.52,270.14z M-1915.55,308.36c-1.29,3.17-3.07,5.91-5.33,8.21
			c-2.27,2.3-4.98,4.1-8.16,5.39c-3.17,1.29-6.64,1.93-10.4,1.93h-38.79v-52.91h36.39c4.25,0,8.1,0.65,11.56,1.93
			c3.45,1.29,6.41,3.12,8.89,5.49c2.47,2.37,4.39,5.21,5.75,8.52c1.36,3.31,2.04,6.99,2.04,11.03
			C-1913.61,301.72-1914.26,305.18-1915.55,308.36z"/>
		<path class="st1" d="M-1883.6,259.58v75.7h38.13c1.33-3.96,2.67-7.76,4-11.4h-29.58v-22.17h38.41c1.78-4.1,3.51-7.91,5.17-11.4
			h-43.57v-19.34h53.66c4.4-7.63,7.17-11.38,7.18-11.4v0H-1883.6z"/>
		<path class="st1" d="M-2207.64,335.28h12.55v-33.57h35.31c1.78-4.1,3.51-7.91,5.17-11.4h-40.48v-19.34h50.56
			c4.4-7.63,7.17-11.38,7.18-11.4v0h-70.29V335.28z"/>
		<path class="st1" d="M-2055.09,297.22c-4.53-3.41-11.54-5.71-21.02-6.9c-3.83-0.49-7.49-0.84-10.98-1.05
			c-3.49-0.21-6.74-0.4-9.78-0.58c-3.03-0.17-5.82-0.42-8.37-0.73c-2.55-0.31-4.86-0.85-6.95-1.62c-4.39-1.53-6.59-3.97-6.59-7.32
			c0-3.14,2.02-5.63,6.06-7.48c4.04-1.85,10-2.77,17.88-2.77c5.99,0,11.8,0.7,17.41,2.09c5.61,1.4,11.24,3.56,16.89,6.48l7.63-8.47
			c-11.01-7.46-24.68-11.19-40.99-11.19c-12.34,0-21.79,2.06-28.34,6.17c-6.55,4.11-9.83,9.72-9.83,16.83c0,3.63,0.73,6.62,2.2,8.99
			c1.46,2.37,3.66,4.29,6.59,5.75c2.93,1.46,6.57,2.56,10.93,3.29c4.36,0.73,9.46,1.31,15.32,1.73c5.58,0.35,10.54,0.68,14.9,0.99
			c4.36,0.31,8.03,0.85,11.03,1.62c3,0.77,5.28,1.88,6.85,3.35c1.57,1.46,2.35,3.56,2.35,6.27c0,4.11-2.34,7.37-7.01,9.78
			c-4.67,2.41-11.54,3.61-20.6,3.61c-6.97,0-13.56-0.87-19.76-2.61c-6.21-1.74-12.37-4.5-18.51-8.26l-6.9,9.1
			c5.51,4.39,11.97,7.62,19.4,9.67c7.42,2.06,15.98,3.08,25.67,3.08c13.52,0,23.79-2.2,30.79-6.59c7.01-4.39,10.51-10.6,10.51-18.61
			C-2048.29,305.52-2050.56,300.64-2055.09,297.22z"/>
	</g>
	<g>
		<rect x="-1164.96" y="259.52" class="st0" width="12.55" height="75.7"/>
		<path class="st0" d="M-1577.77,297.22c-4.53-3.41-11.54-5.71-21.02-6.9c-3.83-0.49-7.49-0.84-10.98-1.05
			c-3.49-0.21-6.74-0.4-9.78-0.58c-3.03-0.17-5.82-0.42-8.36-0.73c-2.55-0.31-4.86-0.85-6.95-1.62c-4.39-1.53-6.59-3.97-6.59-7.32
			c0-3.14,2.02-5.63,6.06-7.48c4.04-1.85,10-2.77,17.88-2.77c5.99,0,11.8,0.7,17.41,2.09c5.61,1.4,11.24,3.56,16.89,6.48l7.63-8.47
			c-11.02-7.46-24.68-11.19-40.99-11.19c-12.34,0-21.79,2.06-28.34,6.17c-6.55,4.11-9.83,9.72-9.83,16.83c0,3.63,0.73,6.62,2.2,8.99
			c1.46,2.37,3.66,4.29,6.59,5.75c2.93,1.46,6.57,2.56,10.93,3.29c4.36,0.73,9.46,1.31,15.32,1.73c5.58,0.35,10.54,0.68,14.9,0.99
			c4.36,0.31,8.03,0.85,11.03,1.62c3,0.77,5.28,1.88,6.85,3.35c1.57,1.46,2.35,3.56,2.35,6.27c0,4.11-2.34,7.37-7.01,9.78
			c-4.67,2.41-11.54,3.61-20.6,3.61c-6.97,0-13.56-0.87-19.76-2.61c-6.21-1.74-12.37-4.5-18.51-8.26l-6.9,9.1
			c5.51,4.39,11.97,7.62,19.4,9.67c7.42,2.06,15.98,3.08,25.67,3.08c13.52,0,23.79-2.2,30.79-6.59c7.01-4.39,10.51-10.6,10.51-18.61
			C-1570.97,305.52-1573.24,300.64-1577.77,297.22z"/>
		<path class="st0" d="M-1484.29,307.86c0,5.94-2.55,10.47-7.63,13.62c-5.09,3.14-12.62,4.71-22.59,4.71
			c-10.04,0-17.62-1.57-22.74-4.71c-5.12-3.14-7.69-7.68-7.69-13.62v-48.28h-12.55v51.24c0,3.83,0.99,7.39,2.98,10.67
			c1.99,3.28,4.83,6.1,8.52,8.47c3.69,2.37,8.21,4.23,13.54,5.59c5.33,1.36,11.31,2.04,17.93,2.04c6.62,0,12.56-0.66,17.83-1.99
			c5.26-1.32,9.74-3.19,13.44-5.59c3.69-2.4,6.54-5.23,8.52-8.47c1.99-3.24,2.98-6.81,2.98-10.72v-51.24h-12.55V307.86z"/>
		<path class="st0" d="M-1379.58,303.39c2.4-1.11,4.5-2.6,6.27-4.44c1.78-1.85,3.15-4.06,4.13-6.64c0.98-2.58,1.46-5.54,1.46-8.89
			c0-7.39-2.25-13.21-6.74-17.46c-4.5-4.25-10.75-6.38-18.77-6.38h-59.71v75.7h12.55v-28.86h38.27l20.5,28.86h14.53l-20.29-29.49
			C-1384.58,305.31-1381.98,304.5-1379.58,303.39z M-1440.38,295.02v-24.05h44.13c10.46,0,15.68,4.15,15.68,12.44
			c0,3.76-1.24,6.64-3.71,8.63c-2.48,1.99-6.08,2.98-10.82,2.98H-1440.38z"/>
		<path class="st0" d="M-1049.63,270.14c-3.7-3.35-8.19-5.94-13.49-7.79c-5.3-1.85-11.26-2.77-17.88-2.77h-47.89v75.7h50.3
			c5.51,0,10.67-0.85,15.48-2.56c4.81-1.71,9.06-4.2,12.76-7.48c4.04-3.55,7.09-7.6,9.15-12.13c2.06-4.53,3.08-9.48,3.08-14.85
			c0-5.86-0.99-11.17-2.98-15.95C-1043.1,277.55-1045.94,273.48-1049.63,270.14z M-1053.66,308.36c-1.29,3.17-3.07,5.91-5.33,8.21
			c-2.27,2.3-4.98,4.1-8.16,5.39c-3.17,1.29-6.64,1.93-10.4,1.93h-38.79v-52.91h36.39c4.25,0,8.1,0.65,11.56,1.93
			c3.45,1.29,6.41,3.12,8.89,5.49c2.47,2.37,4.39,5.21,5.75,8.52c1.36,3.31,2.04,6.99,2.04,11.03
			C-1051.72,301.72-1052.37,305.18-1053.66,308.36z"/>
		<path class="st0" d="M-1021.71,259.58v75.7h38.13c1.33-3.96,2.67-7.76,4-11.4h-29.58v-22.17h38.41c1.78-4.1,3.51-7.91,5.17-11.4
			h-43.57v-19.34h53.66c4.4-7.63,7.17-11.38,7.18-11.4v0H-1021.71z"/>
		<path class="st0" d="M-1345.75,335.28h12.55v-33.57h35.31c1.78-4.1,3.51-7.91,5.17-11.4h-40.48v-19.34h50.56
			c4.4-7.63,7.17-11.38,7.18-11.4v0h-70.29V335.28z"/>
		<path class="st0" d="M-1193.2,297.22c-4.53-3.41-11.54-5.71-21.02-6.9c-3.83-0.49-7.49-0.84-10.98-1.05
			c-3.49-0.21-6.74-0.4-9.78-0.58c-3.03-0.17-5.82-0.42-8.37-0.73c-2.55-0.31-4.86-0.85-6.95-1.62c-4.39-1.53-6.59-3.97-6.59-7.32
			c0-3.14,2.02-5.63,6.06-7.48c4.04-1.85,10-2.77,17.88-2.77c5.99,0,11.8,0.7,17.41,2.09c5.61,1.4,11.24,3.56,16.89,6.48l7.63-8.47
			c-11.01-7.46-24.68-11.19-40.99-11.19c-12.34,0-21.79,2.06-28.34,6.17c-6.55,4.11-9.83,9.72-9.83,16.83c0,3.63,0.73,6.62,2.2,8.99
			c1.46,2.37,3.66,4.29,6.59,5.75c2.93,1.46,6.57,2.56,10.93,3.29c4.36,0.73,9.46,1.31,15.32,1.73c5.58,0.35,10.54,0.68,14.9,0.99
			c4.36,0.31,8.03,0.85,11.03,1.62c3,0.77,5.28,1.88,6.85,3.35c1.57,1.46,2.35,3.56,2.35,6.27c0,4.11-2.34,7.37-7.01,9.78
			c-4.67,2.41-11.54,3.61-20.6,3.61c-6.97,0-13.56-0.87-19.76-2.61c-6.21-1.74-12.37-4.5-18.51-8.26l-6.9,9.1
			c5.51,4.39,11.97,7.62,19.4,9.67c7.42,2.06,15.98,3.08,25.67,3.08c13.52,0,23.79-2.2,30.79-6.59c7.01-4.39,10.51-10.6,10.51-18.61
			C-1186.4,305.52-1188.67,300.64-1193.2,297.22z"/>
	</g>
	<g>
		<rect x="-303.07" y="259.52" class="st1" width="12.55" height="75.7"/>
		<path class="st1" d="M-715.88,297.22c-4.53-3.41-11.54-5.71-21.02-6.9c-3.83-0.49-7.49-0.84-10.98-1.05
			c-3.49-0.21-6.74-0.4-9.78-0.58c-3.03-0.17-5.82-0.42-8.36-0.73c-2.55-0.31-4.86-0.85-6.95-1.62c-4.39-1.53-6.59-3.97-6.59-7.32
			c0-3.14,2.02-5.63,6.07-7.48c4.04-1.85,10-2.77,17.88-2.77c5.99,0,11.8,0.7,17.41,2.09c5.61,1.4,11.24,3.56,16.89,6.48l7.63-8.47
			c-11.02-7.46-24.68-11.19-40.99-11.19c-12.34,0-21.79,2.06-28.34,6.17c-6.55,4.11-9.83,9.72-9.83,16.83c0,3.63,0.73,6.62,2.2,8.99
			c1.46,2.37,3.66,4.29,6.59,5.75c2.93,1.46,6.57,2.56,10.93,3.29c4.36,0.73,9.46,1.31,15.32,1.73c5.58,0.35,10.54,0.68,14.9,0.99
			c4.36,0.31,8.03,0.85,11.03,1.62c3,0.77,5.28,1.88,6.85,3.35c1.57,1.46,2.35,3.56,2.35,6.27c0,4.11-2.34,7.37-7.01,9.78
			c-4.67,2.41-11.54,3.61-20.6,3.61c-6.97,0-13.56-0.87-19.76-2.61c-6.21-1.74-12.37-4.5-18.51-8.26l-6.9,9.1
			c5.51,4.39,11.97,7.62,19.4,9.67c7.42,2.06,15.98,3.08,25.67,3.08c13.52,0,23.79-2.2,30.79-6.59c7.01-4.39,10.51-10.6,10.51-18.61
			C-709.08,305.52-711.35,300.64-715.88,297.22z"/>
		<path class="st1" d="M-622.4,307.86c0,5.94-2.55,10.47-7.63,13.62c-5.09,3.14-12.62,4.71-22.59,4.71
			c-10.04,0-17.62-1.57-22.74-4.71c-5.12-3.14-7.69-7.68-7.69-13.62v-48.28h-12.55v51.24c0,3.83,0.99,7.39,2.98,10.67
			c1.99,3.28,4.83,6.1,8.52,8.47c3.69,2.37,8.21,4.23,13.54,5.59c5.33,1.36,11.31,2.04,17.93,2.04c6.62,0,12.56-0.66,17.83-1.99
			c5.26-1.32,9.74-3.19,13.44-5.59c3.69-2.4,6.53-5.23,8.52-8.47c1.99-3.24,2.98-6.81,2.98-10.72v-51.24h-12.55V307.86z"/>
		<path class="st1" d="M-517.69,303.39c2.4-1.11,4.5-2.6,6.27-4.44c1.78-1.85,3.15-4.06,4.13-6.64c0.98-2.58,1.46-5.54,1.46-8.89
			c0-7.39-2.25-13.21-6.74-17.46c-4.5-4.25-10.75-6.38-18.77-6.38h-59.71v75.7h12.55v-28.86h38.27l20.5,28.86h14.53l-20.29-29.49
			C-522.69,305.31-520.09,304.5-517.69,303.39z M-578.49,295.02v-24.05h44.13c10.46,0,15.68,4.15,15.68,12.44
			c0,3.76-1.24,6.64-3.71,8.63c-2.48,1.99-6.08,2.98-10.82,2.98H-578.49z"/>
		<path class="st1" d="M-187.74,270.14c-3.7-3.35-8.19-5.94-13.49-7.79c-5.3-1.85-11.26-2.77-17.88-2.77H-267v75.7h50.3
			c5.51,0,10.67-0.85,15.48-2.56c4.81-1.71,9.06-4.2,12.76-7.48c4.04-3.55,7.09-7.6,9.15-12.13c2.06-4.53,3.08-9.48,3.08-14.85
			c0-5.86-0.99-11.17-2.98-15.95C-181.21,277.55-184.05,273.48-187.74,270.14z M-191.77,308.36c-1.29,3.17-3.07,5.91-5.33,8.21
			c-2.27,2.3-4.98,4.1-8.16,5.39c-3.17,1.29-6.64,1.93-10.4,1.93h-38.79v-52.91h36.39c4.25,0,8.1,0.65,11.56,1.93
			c3.45,1.29,6.41,3.12,8.89,5.49c2.47,2.37,4.39,5.21,5.75,8.52c1.36,3.31,2.04,6.99,2.04,11.03
			C-189.83,301.72-190.48,305.18-191.77,308.36z"/>
		<path class="st1" d="M-159.82,259.58v75.7h38.13c1.33-3.96,2.67-7.76,4-11.4h-29.58v-22.17h38.41c1.78-4.1,3.51-7.91,5.17-11.4
			h-43.57v-19.34h53.66c4.4-7.63,7.17-11.38,7.18-11.4v0H-159.82z"/>
		<path class="st1" d="M-483.86,335.28h12.55v-33.57H-436c1.78-4.1,3.51-7.91,5.17-11.4h-40.48v-19.34h50.56
			c4.4-7.63,7.17-11.38,7.18-11.4v0h-70.29V335.28z"/>
		<path class="st1" d="M-331.31,297.22c-4.53-3.41-11.54-5.71-21.02-6.9c-3.83-0.49-7.49-0.84-10.98-1.05
			c-3.49-0.21-6.74-0.4-9.78-0.58c-3.03-0.17-5.82-0.42-8.37-0.73c-2.55-0.31-4.86-0.85-6.95-1.62c-4.39-1.53-6.59-3.97-6.59-7.32
			c0-3.14,2.02-5.63,6.06-7.48c4.04-1.85,10-2.77,17.88-2.77c5.99,0,11.8,0.7,17.41,2.09c5.61,1.4,11.24,3.56,16.89,6.48l7.63-8.47
			c-11.01-7.46-24.68-11.19-40.99-11.19c-12.34,0-21.79,2.06-28.34,6.17c-6.55,4.11-9.83,9.72-9.83,16.83c0,3.63,0.73,6.62,2.2,8.99
			c1.46,2.37,3.66,4.29,6.59,5.75c2.93,1.46,6.57,2.56,10.93,3.29c4.36,0.73,9.46,1.31,15.32,1.73c5.58,0.35,10.54,0.68,14.9,0.99
			c4.36,0.31,8.03,0.85,11.03,1.62c3,0.77,5.28,1.88,6.85,3.35c1.57,1.46,2.35,3.56,2.35,6.27c0,4.11-2.34,7.37-7.01,9.78
			c-4.67,2.41-11.54,3.61-20.6,3.61c-6.97,0-13.56-0.87-19.76-2.61c-6.21-1.74-12.37-4.5-18.51-8.26l-6.9,9.1
			c5.51,4.39,11.97,7.62,19.4,9.67c7.42,2.06,15.98,3.08,25.67,3.08c13.52,0,23.79-2.2,30.79-6.59c7.01-4.39,10.51-10.6,10.51-18.61
			C-324.51,305.52-326.78,300.64-331.31,297.22z"/>
	</g>
</g>
</svg>
