<?xml version="1.0" encoding="utf-8"?>
<!-- Generator: Adobe Illustrator 28.1.0, SVG Export Plug-In . SVG Version: 6.00 Build 0)  -->
<svg version="1.1" id="ART" xmlns="http://www.w3.org/2000/svg" xmlns:xlink="http://www.w3.org/1999/xlink" x="0px" y="0px"
	 viewBox="0 0 1000 1000" style="enable-background:new 0 0 1000 1000;" xml:space="preserve">
<style type="text/css">
	.st0{fill:#CADEDD;}
	.st1{fill:#0F3239;}
	.st2{fill:#6BB7B3;}
</style>
<rect class="st1" width="1000" height="1000"/>
<g>
	<rect x="656.74" y="456.67" class="st0" width="14.27" height="86.07"/>
	<path class="st0" d="M187.43,499.52c-5.15-3.88-13.12-6.5-23.89-7.85c-4.36-0.55-8.52-0.95-12.48-1.19
		c-3.96-0.24-7.67-0.46-11.12-0.65c-3.45-0.2-6.62-0.48-9.51-0.83c-2.89-0.36-5.53-0.97-7.91-1.84c-4.99-1.74-7.49-4.52-7.49-8.32
		c0-3.57,2.3-6.4,6.9-8.5c4.6-2.1,11.37-3.15,20.33-3.15c6.82,0,13.41,0.79,19.79,2.38c6.38,1.59,12.78,4.04,19.2,7.37l8.68-9.63
		c-12.52-8.48-28.05-12.72-46.6-12.72c-14.03,0-24.77,2.34-32.22,7.01c-7.45,4.68-11.17,11.06-11.17,19.14
		c0,4.12,0.83,7.53,2.5,10.22c1.66,2.7,4.16,4.87,7.49,6.54c3.33,1.66,7.47,2.91,12.42,3.74c4.95,0.83,10.76,1.49,17.42,1.96
		c6.34,0.4,11.99,0.77,16.94,1.13c4.95,0.36,9.13,0.97,12.54,1.84c3.41,0.87,6,2.14,7.79,3.8c1.78,1.66,2.67,4.04,2.67,7.13
		c0,4.68-2.66,8.38-7.97,11.11c-5.31,2.73-13.12,4.1-23.42,4.1c-7.93,0-15.42-0.99-22.47-2.97c-7.05-1.98-14.07-5.11-21.04-9.39
		l-7.85,10.34c6.26,4.99,13.61,8.66,22.05,11c8.44,2.34,18.17,3.51,29.18,3.51c15.37,0,27.04-2.5,35.01-7.49
		c7.96-4.99,11.95-12.05,11.95-21.16C195.16,508.96,192.58,503.41,187.43,499.52z"/>
	<path class="st0" d="M293.7,511.62c0,6.75-2.89,11.91-8.68,15.48c-5.79,3.57-14.35,5.36-25.68,5.36c-11.41,0-20.03-1.78-25.86-5.36
		c-5.82-3.57-8.74-8.73-8.74-15.48v-54.89h-14.27v58.25c0,4.36,1.13,8.4,3.39,12.13c2.26,3.73,5.49,6.94,9.69,9.63
		c4.2,2.7,9.33,4.81,15.39,6.36c6.06,1.55,12.86,2.32,20.39,2.32c7.53,0,14.28-0.75,20.27-2.26c5.98-1.5,11.07-3.63,15.28-6.36
		c4.2-2.73,7.43-5.94,9.69-9.63c2.26-3.69,3.39-7.75,3.39-12.19v-58.25H293.7V511.62z"/>
	<path class="st0" d="M412.76,506.54c2.73-1.27,5.11-2.95,7.13-5.05c2.02-2.1,3.58-4.62,4.69-7.55c1.11-2.93,1.66-6.3,1.66-10.1
		c0-8.4-2.56-15.02-7.67-19.85c-5.11-4.83-12.23-7.25-21.34-7.25h-67.88v86.07h14.27v-32.81h43.51l23.3,32.81h16.52l-23.06-33.52
		C407.07,508.72,410.02,507.81,412.76,506.54z M343.63,497.03v-27.34h50.17c11.89,0,17.83,4.72,17.83,14.15
		c0,4.28-1.41,7.55-4.22,9.81c-2.81,2.26-6.91,3.39-12.3,3.39H343.63z"/>
	<path class="st0" d="M787.86,468.74c-4.2-3.8-9.31-6.76-15.33-8.86c-6.02-2.1-12.8-3.15-20.33-3.15h-54.45v86.07h57.18
		c6.26,0,12.13-0.97,17.59-2.91c5.47-1.94,10.3-4.77,14.5-8.5c4.6-4.04,8.06-8.64,10.4-13.79c2.34-5.15,3.51-10.78,3.51-16.88
		c0-6.66-1.13-12.7-3.39-18.13C795.29,477.16,792.06,472.54,787.86,468.74z M783.28,512.18c-1.47,3.61-3.49,6.72-6.06,9.33
		c-2.58,2.62-5.67,4.66-9.27,6.12c-3.61,1.47-7.55,2.2-11.83,2.2h-44.1v-60.15h41.37c4.83,0,9.21,0.73,13.14,2.2
		c3.92,1.47,7.29,3.55,10.1,6.24c2.81,2.7,4.99,5.93,6.54,9.69c1.55,3.77,2.32,7.95,2.32,12.54
		C785.48,504.64,784.75,508.58,783.28,512.18z"/>
	<path class="st0" d="M819.6,456.73v86.07h43.35c1.51-4.5,3.03-8.82,4.54-12.96h-33.63v-25.2h43.66c2.02-4.67,3.99-8.99,5.88-12.96
		h-49.54v-21.99h61.01c5-8.67,8.15-12.94,8.16-12.95v0H819.6z"/>
	<path class="st0" d="M451.21,542.8h14.27v-38.16h40.14c2.02-4.67,3.99-8.99,5.88-12.96h-46.02v-21.99h57.48
		c5-8.68,8.15-12.94,8.16-12.96v0h-79.91V542.8z"/>
	<path class="st0" d="M624.64,499.52c-5.15-3.88-13.12-6.5-23.89-7.85c-4.36-0.55-8.52-0.95-12.48-1.19
		c-3.96-0.24-7.67-0.46-11.11-0.65c-3.45-0.2-6.62-0.48-9.51-0.83c-2.89-0.36-5.53-0.97-7.91-1.84c-4.99-1.74-7.49-4.52-7.49-8.32
		c0-3.57,2.3-6.4,6.89-8.5c4.59-2.1,11.37-3.15,20.33-3.15c6.81,0,13.41,0.79,19.79,2.38c6.38,1.59,12.78,4.04,19.2,7.37l8.68-9.63
		c-12.52-8.48-28.06-12.72-46.6-12.72c-14.03,0-24.77,2.34-32.22,7.01c-7.45,4.68-11.17,11.06-11.17,19.14
		c0,4.12,0.83,7.53,2.5,10.22c1.66,2.7,4.16,4.87,7.49,6.54c3.33,1.66,7.47,2.91,12.42,3.74c4.95,0.83,10.76,1.49,17.42,1.96
		c6.34,0.4,11.99,0.77,16.94,1.13c4.95,0.36,9.13,0.97,12.54,1.84c3.41,0.87,6,2.14,7.79,3.8c1.78,1.66,2.67,4.04,2.67,7.13
		c0,4.68-2.66,8.38-7.96,11.11c-5.31,2.73-13.12,4.1-23.42,4.1c-7.93,0-15.42-0.99-22.47-2.97c-7.06-1.98-14.07-5.11-21.04-9.39
		l-7.85,10.34c6.26,4.99,13.61,8.66,22.05,11c8.44,2.34,18.17,3.51,29.19,3.51c15.37,0,27.04-2.5,35.01-7.49
		c7.96-4.99,11.95-12.05,11.95-21.16C632.37,508.96,629.79,503.41,624.64,499.52z"/>
</g>
</svg>
